{
  "accessors": [
    {
      "bufferView": 2,
      "componentType": 5126,
      "count": 24389,
      "max": [
        0.21806807816028595,
        0.5536476969718933,
        0.6206851005554199
      ],
      "min": [
        -0.4006708264350891,
        -0.17360953986644745,
        -0.5083779096603394
      ],
      "type": "VEC3"
    },
    {
      "bufferView": 2,
      "byteOffset": 292668,
      "componentType": 5126,
      "count": 24389,
      "max": [
        0.9999736547470093,
        0.9999995827674866,
        0.999988853931427
      ],
      "min": [
        -0.9999983310699463,
        -1.0,
        -0.9998279809951782
      ],
      "type": "VEC3"
    },
    {
      "bufferView": 3,
      "componentType": 5126,
      "count": 24389,
      "max": [
        0.9999513626098633,
        0.9998922944068909,
        0.999937891960144,
        1.0
      ],
      "min": [
        -0.9999767541885376,
        -0.9999897480010986,
        -0.9998433589935303,
        1.0
      ],
      "type": "VEC4"
    },
    {
      "bufferView": 1,
      "componentType": 5126,
      "count": 24389,
      "max": [
        0.9999266862869263,
        0.9991325736045837
      ],
      "min": [
        8.134619565680623e-05,
        9.903229511110112e-05
      ],
      "type": "VEC2"
    },
    {
      "bufferView": 1,
      "byteOffset": 195112,
      "componentType": 5126,
      "count": 24389,
      "max": [
        0.9999266862869263,
        0.9991325736045837
      ],
      "min": [
        8.134619565680623e-05,
        9.903229511110112e-05
      ],
      "type": "VEC2"
    },
    {
      "bufferView": 1,
      "byteOffset": 390224,
      "componentType": 5126,
      "count": 24389,
      "max": [
        0.9999266862869263,
        0.9991325736045837
      ],
      "min": [
        8.134619565680623e-05,
        9.903229511110112e-05
      ],
      "type": "VEC2"
    },
    {
      "bufferView": 0,
      "componentType": 5125,
      "count": 126720,
      "type": "SCALAR"
    }
  ],
  "asset": {
    "extras": {
      "author": "canyobility (https://sketchfab.com/Canyobility)",
      "license": "SKETCHFAB Standard (https://sketchfab.com/licenses)",
      "source": "https://sketchfab.com/3d-models/colorful-sandstone-rock-e2fdca0d58bf4461be739054ef1b00bb",
      "title": "Colorful sandstone rock"
    },
    "generator": "Sketchfab-16.12.0",
    "version": "2.0"
  },
  "bufferViews": [
    {
      "buffer": 0,
      "byteLength": 506880,
      "name": "floatBufferViews",
      "target": 34963
    },
    {
      "buffer": 0,
      "byteLength": 585336,
      "byteOffset": 506880,
      "byteStride": 8,
      "name": "floatBufferViews",
      "target": 34962
    },
    {
      "buffer": 0,
      "byteLength": 585336,
      "byteOffset": 1092216,
      "byteStride": 12,
      "name": "floatBufferViews",
      "target": 34962
    },
    {
      "buffer": 0,
      "byteLength": 390224,
      "byteOffset": 1677552,
      "byteStride": 16,
      "name": "floatBufferViews",
      "target": 34962
    }
  ],
  "buffers": [
    {
      "byteLength": 2067776,
      "uri": "scene.bin"
    }
  ],
  "images": [
    {
      "uri": "textures/material_0_baseColor.jpeg"
    },
    {
      "uri": "textures/material_0_metallicRoughness.png"
    },
    {
      "uri": "textures/material_0_normal.jpeg"
    }
  ],
  "materials": [
    {
      "name": "material_0",
      "normalTexture": {
        "index": 2
      },
      "occlusionTexture": {
        "index": 1
      },
      "pbrMetallicRoughness": {
        "baseColorTexture": {
          "index": 0
        },
        "metallicFactor": 0.0,
        "metallicRoughnessTexture": {
          "index": 1
        }
      }
    }
  ],
  "meshes": [
    {
      "name": "Object_0",
      "primitives": [
        {
          "attributes": {
            "NORMAL": 1,
            "POSITION": 0,
            "TANGENT": 2,
            "TEXCOORD_0": 3,
            "TEXCOORD_1": 4,
            "TEXCOORD_2": 5
          },
          "indices": 6,
          "material": 0,
          "mode": 4
        }
      ]
    }
  ],
  "nodes": [
    {
      "children": [
        1
      ],
      "matrix": [
        1.0,
        0.0,
        0.0,
        0.0,
        0.0,
        2.220446049250313e-16,
        -1.0,
        0.0,
        0.0,
        1.0,
        2.220446049250313e-16,
        0.0,
        0.0,
        0.0,
        0.0,
        1.0
      ],
      "name": "Sketchfab_model"
    },
    {
      "children": [
        2
      ],
      "name": "root"
    },
    {
      "children": [
        3
      ],
      "matrix": [
        1.0,
        0.0,
        0.0,
        0.0,
        0.0,
        2.220446049250313e-16,
        1.0,
        0.0,
        0.0,
        -1.0,
        2.220446049250313e-16,
        0.0,
        0.0,
        0.0,
        0.0,
        1.0
      ],
      "name": "GLTF_SceneRootNode"
    },
    {
      "children": [
        4
      ],
      "name": "_0"
    },
    {
      "mesh": 0,
      "name": "Object_4"
    }
  ],
  "samplers": [
    {
      "magFilter": 9729,
      "minFilter": 9987,
      "wrapS": 10497,
      "wrapT": 10497
    }
  ],
  "scene": 0,
  "scenes": [
    {
      "name": "Sketchfab_Scene",
      "nodes": [
        0
      ]
    }
  ],
  "textures": [
    {
      "sampler": 0,
      "source": 0
    },
    {
      "sampler": 0,
      "source": 1
    },
    {
      "sampler": 0,
      "source": 2
    }
  ]
}
