{
  "accessors": [
    {
      "bufferView": 2,
      "componentType": 5126,
      "count": 27540,
      "max": [
        0.4658815860748291,
        0.5566639304161072,
        0.20312993228435516
      ],
      "min": [
        -0.49094441533088684,
        0.14334428310394287,
        -0.35507258772850037
      ],
      "type": "VEC3"
    },
    {
      "bufferView": 2,
      "byteOffset": 330480,
      "componentType": 5126,
      "count": 27540,
      "max": [
        0.9999464154243469,
        1.0,
        0.9999930262565613
      ],
      "min": [
        -0.9996911287307739,
        -1.0,
        -0.999981164932251
      ],
      "type": "VEC3"
    },
    {
      "bufferView": 3,
      "componentType": 5126,
      "count": 27540,
      "max": [
        0.9998284578323364,
        0.9999960064888,
        0.9999690055847168,
        1.0
      ],
      "min": [
        -0.999999463558197,
        -0.9999703168869019,
        -0.999982476234436,
        1.0
      ],
      "type": "VEC4"
    },
    {
      "bufferView": 1,
      "componentType": 5126,
      "count": 27540,
      "max": [
        0.9989436268806458,
        0.9999155402183533
      ],
      "min": [
        8.096825331449509e-05,
        0.00010251899948343635
      ],
      "type": "VEC2"
    },
    {
      "bufferView": 1,
      "byteOffset": 220320,
      "componentType": 5126,
      "count": 27540,
      "max": [
        0.9989436268806458,
        0.9999155402183533
      ],
      "min": [
        8.096825331449509e-05,
        0.00010251899948343635
      ],
      "type": "VEC2"
    },
    {
      "bufferView": 1,
      "byteOffset": 440640,
      "componentType": 5126,
      "count": 27540,
      "max": [
        0.9989436268806458,
        0.9999155402183533
      ],
      "min": [
        8.096825331449509e-05,
        0.00010251899948343635
      ],
      "type": "VEC2"
    },
    {
      "bufferView": 0,
      "componentType": 5125,
      "count": 136467,
      "type": "SCALAR"
    }
  ],
  "asset": {
    "extras": {
      "author": "canyobility (https://sketchfab.com/Canyobility)",
      "license": "SKETCHFAB Standard (https://sketchfab.com/licenses)",
      "source": "https://sketchfab.com/3d-models/sandstone-boulder-e43455c59ee047c1b2165a3949eb5a05",
      "title": "Sandstone boulder"
    },
    "generator": "Sketchfab-16.12.0",
    "version": "2.0"
  },
  "bufferViews": [
    {
      "buffer": 0,
      "byteLength": 545868,
      "name": "floatBufferViews",
      "target": 34963
    },
    {
      "buffer": 0,
      "byteLength": 660960,
      "byteOffset": 545868,
      "byteStride": 8,
      "name": "floatBufferViews",
      "target": 34962
    },
    {
      "buffer": 0,
      "byteLength": 660960,
      "byteOffset": 1206828,
      "byteStride": 12,
      "name": "floatBufferViews",
      "target": 34962
    },
    {
      "buffer": 0,
      "byteLength": 440640,
      "byteOffset": 1867788,
      "byteStride": 16,
      "name": "floatBufferViews",
      "target": 34962
    }
  ],
  "buffers": [
    {
      "byteLength": 2308428,
      "uri": "scene.bin"
    }
  ],
  "images": [
    {
      "uri": "textures/material_0_baseColor.jpeg"
    },
    {
      "uri": "textures/material_0_metallicRoughness.png"
    },
    {
      "uri": "textures/material_0_normal.jpeg"
    }
  ],
  "materials": [
    {
      "name": "material_0",
      "normalTexture": {
        "index": 2
      },
      "occlusionTexture": {
        "index": 1
      },
      "pbrMetallicRoughness": {
        "baseColorTexture": {
          "index": 0
        },
        "metallicFactor": 0.0,
        "metallicRoughnessTexture": {
          "index": 1
        }
      }
    }
  ],
  "meshes": [
    {
      "name": "Object_0",
      "primitives": [
        {
          "attributes": {
            "NORMAL": 1,
            "POSITION": 0,
            "TANGENT": 2,
            "TEXCOORD_0": 3,
            "TEXCOORD_1": 4,
            "TEXCOORD_2": 5
          },
          "indices": 6,
          "material": 0,
          "mode": 4
        }
      ]
    }
  ],
  "nodes": [
    {
      "children": [
        1
      ],
      "matrix": [
        1.0,
        0.0,
        0.0,
        0.0,
        0.0,
        2.220446049250313e-16,
        -1.0,
        0.0,
        0.0,
        1.0,
        2.220446049250313e-16,
        0.0,
        0.0,
        0.0,
        0.0,
        1.0
      ],
      "name": "Sketchfab_model"
    },
    {
      "children": [
        2
      ],
      "name": "root"
    },
    {
      "children": [
        3
      ],
      "matrix": [
        1.0,
        0.0,
        0.0,
        0.0,
        0.0,
        2.220446049250313e-16,
        1.0,
        0.0,
        0.0,
        -1.0,
        2.220446049250313e-16,
        0.0,
        0.0,
        0.0,
        0.0,
        1.0
      ],
      "name": "GLTF_SceneRootNode"
    },
    {
      "children": [
        4
      ],
      "name": "_0"
    },
    {
      "mesh": 0,
      "name": "Object_4"
    }
  ],
  "samplers": [
    {
      "magFilter": 9729,
      "minFilter": 9987,
      "wrapS": 10497,
      "wrapT": 10497
    }
  ],
  "scene": 0,
  "scenes": [
    {
      "name": "Sketchfab_Scene",
      "nodes": [
        0
      ]
    }
  ],
  "textures": [
    {
      "sampler": 0,
      "source": 0
    },
    {
      "sampler": 0,
      "source": 1
    },
    {
      "sampler": 0,
      "source": 2
    }
  ]
}
